Coordinates
version=1
nRows=5
nColumns=40
inDegrees=yes

Units are S.I. units (second, meters, Newtons, ...)
Angles are in degrees.

endheader
time	pelvis_tilt	pelvis_list	pelvis_rotation	pelvis_tx	pelvis_ty	pelvis_tz	hip_flexion_r	hip_adduction_r	hip_rotation_r	knee_angle_r	knee_angle_r_beta	ankle_angle_r	subtalar_angle_r	mtp_angle_r	hip_flexion_l	hip_adduction_l	hip_rotation_l	knee_angle_l	knee_angle_l_beta	ankle_angle_l	subtalar_angle_l	mtp_angle_l	lumbar_extension	lumbar_bending	lumbar_rotation	arm_flex_r	arm_add_r	arm_rot_r	elbow_flex_r	pro_sup_r	wrist_flex_r	wrist_dev_r	arm_flex_l	arm_add_l	arm_rot_l	elbow_flex_l	pro_sup_l	wrist_flex_l	wrist_dev_l
     55.76000000	     -5.33782494	     -4.44417887	      1.82558508	      0.98281913	      0.91727046	      0.40534545	     17.42705616	     -5.33165136	     -5.55771918	     57.79476827	     57.79476827	      4.09491753	    -12.22737084	     -3.20106949	     22.29633134	     -1.84318409	     -0.10330524	     31.79227174	     31.79227174	     17.27774964	    -14.45129534	      6.72477306	     -9.57945739	      4.57183766	      3.10991096	     24.44999053	    -13.88651693	     -2.66289612	     41.35806753	     44.99718399	      0.00000000	      0.00000000	     14.24006134	    -12.48510616	      9.87869518	     32.04715907	     44.84031765	      0.00000000	      0.00000000
     55.78014286	     -5.03307211	     -4.45267938	      1.48649585	      0.98181193	      0.91612887	      0.40317617	     19.02773222	     -5.43747030	     -5.05871096	     60.00438858	     60.00438858	      4.24932521	    -14.37246266	     -2.81915066	     21.88444815	     -1.73519592	     -0.16110984	     32.43685729	     32.43685729	     17.86041435	    -14.94043554	      6.54002089	     -9.76989160	      4.83103068	      2.94118548	     21.10020223	    -13.88234964	     -2.56377035	     39.32828458	     45.06044318	      0.00000000	      0.00000000	     16.12467420	    -12.62923592	      9.66771474	     33.25456012	     44.91140038	      0.00000000	      0.00000000
     55.80028571	     -4.67378597	     -4.41765198	      1.12179976	      0.98079797	      0.91501778	      0.40098229	     20.56769035	     -5.64717142	     -4.63448718	     61.97627209	     61.97627209	      4.47050745	    -16.06206085	     -2.33944359	     21.36878136	     -1.57825607	     -0.25536408	     33.04228107	     33.04228107	     18.50297978	    -15.42091695	      6.36502869	    -10.04874478	      5.05862365	      2.62223663	     17.84988846	    -13.81064786	     -2.48925276	     37.31281920	     45.12122506	      0.00000000	      0.00000000	     18.08600302	    -12.90207497	      9.42743163	     34.43382002	     44.98202442	      0.00000000	      0.00000000
     55.82042857	     -4.34536301	     -4.51524995	      0.71843510	      0.97963824	      0.91408261	      0.39913145	     22.25414128	     -5.59080237	     -4.13126951	     63.85906529	     63.85906529	      6.30569102	    -16.68011970	      2.98128592	     20.89743443	     -1.59005462	     -0.35139224	     33.67520807	     33.67520807	     19.43672707	    -15.67799894	      7.06276027	    -10.30081109	      5.42280923	      2.51202393	     15.55589391	    -13.47461373	     -3.78629594	     32.16445453	     45.45632235	      0.00000000	      0.00000000	     19.83756542	    -13.14803029	      9.03895651	     36.45128751	     45.15151246	      0.00000000	      0.00000000
     55.84057143	     -4.07692435	     -4.52412400	      0.26991517	      0.97841558	      0.91323947	      0.39744200	     23.77904964	     -5.70600231	     -3.77233892	     64.91100263	     64.91100263	      6.59616898	    -17.63643614	      3.40093564	     20.36737672	     -1.52024290	     -0.53648490	     34.05337512	     34.05337512	     19.95960076	    -16.07643442	      6.94568958	    -10.54432903	      5.69296693	      2.53393619	     12.22040492	    -13.60490755	     -3.92255966	     30.18124725	     45.53219116	      0.00000000	      0.00000000	     21.84163642	    -13.32423367	      8.65849370	     37.86989722	     45.24331459	      0.00000000	      0.00000000
